<?xml version="1.0" encoding="UTF-8" standalone="no"?>
<!-- Created with Inkscape (http://www.inkscape.org/) -->

<svg
   width="90.544952mm"
   height="260.2088mm"
   viewBox="0 0 90.544952 260.2088"
   version="1.1"
   id="svg1"
   inkscape:version="1.4 (86a8ad7, 2024-10-11)"
   sodipodi:docname="background.svg"
   xmlns:inkscape="http://www.inkscape.org/namespaces/inkscape"
   xmlns:sodipodi="http://sodipodi.sourceforge.net/DTD/sodipodi-0.dtd"
   xmlns:xlink="http://www.w3.org/1999/xlink"
   xmlns="http://www.w3.org/2000/svg"
   xmlns:svg="http://www.w3.org/2000/svg">
  <sodipodi:namedview
     id="namedview1"
     pagecolor="#000000"
     bordercolor="#000000"
     borderopacity="0.25"
     inkscape:showpageshadow="2"
     inkscape:pageopacity="0.0"
     inkscape:pagecheckerboard="false"
     inkscape:deskcolor="#d1d1d1"
     inkscape:document-units="mm"
     showgrid="false"
     showborder="true"
     showguides="true"
     inkscape:zoom="1.0000001"
     inkscape:cx="202.99999"
     inkscape:cy="578.49997"
     inkscape:window-width="1920"
     inkscape:window-height="974"
     inkscape:window-x="1909"
     inkscape:window-y="-11"
     inkscape:window-maximized="1"
     inkscape:current-layer="layer1">
    <inkscape:grid
       id="grid2"
       units="mm"
       originx="-323.19434"
       originy="-136.47716"
       spacingx="0.99999994"
       spacingy="0.99999994"
       empcolor="#0099e5"
       empopacity="0.30196078"
       color="#0099e5"
       opacity="0.14901961"
       empspacing="5"
       enabled="true"
       visible="false" />
  </sodipodi:namedview>
  <defs
     id="defs1">
    <linearGradient
       id="linearGradient14"
       inkscape:collect="always">
      <stop
         style="stop-color:#ff0000;stop-opacity:1;"
         offset="0"
         id="stop14" />
      <stop
         style="stop-color:#0061ff;stop-opacity:0;"
         offset="1"
         id="stop16" />
    </linearGradient>
    <linearGradient
       id="swatch162"
       inkscape:swatch="solid"
       gradientTransform="matrix(0,0,0,0,280.32106,270.84528)">
      <stop
         style="stop-color:#000000;stop-opacity:1;"
         offset="0"
         id="stop163" />
    </linearGradient>
    <linearGradient
       inkscape:collect="always"
       xlink:href="#linearGradient14"
       id="linearGradient15"
       x1="322.92033"
       y1="266.58099"
       x2="414.01348"
       y2="266.58099"
       gradientUnits="userSpaceOnUse" />
  </defs>
  <g
     inkscape:label="Livello 1"
     inkscape:groupmode="layer"
     id="layer1"
     transform="translate(-323.19432,-136.47716)">
    <path
       d="m 338.46574,136.47716 -0.0568,0.0997 h -9.99991 l -4.84157,8.38656 v -8.28683 c -1.4e-4,-0.0558 -0.046,-0.1008 -0.1018,-0.0997 -0.055,1.4e-4 -0.0996,0.0447 -0.0997,0.0997 v 8.5602 h -0.0718 l 0.0579,0.10077 -0.15761,0.27234 0.17157,-0.0992 v 17.12298 l -0.0718,0.12506 h 0.0718 v 16.84755 0.2713 h -0.0718 l 0.0584,0.0997 -0.0584,0.10128 h 0.0718 v 0.27389 16.84548 h -0.0718 l 0.0718,0.12402 v 0.14935 0.20102 l 5.1e-4,-0.001 v 16.77468 l -0.17208,-0.0997 0.15761,0.27285 -0.0579,0.10025 h 0.0718 v 8.56072 8.5602 h -0.0718 l 0.0579,0.10077 -0.15761,0.27234 0.17157,-0.0992 v 17.12298 l -0.0718,0.12506 h 0.0718 v 16.84755 0.2713 h -0.0718 l 0.0584,0.0997 -0.0584,0.10128 h 0.0718 v 0.27389 16.84548 h -0.0718 l 0.0718,0.12402 v 0.14935 0.20102 l 5.1e-4,-0.001 v 16.77468 l -0.17208,-0.0997 0.15761,0.27285 -0.0579,0.10025 h 0.0718 v 8.56072 8.5602 h -0.0718 l 0.0579,0.10077 -0.15761,0.27233 0.17157,-0.0992 v 17.12298 l -0.0718,0.12506 h 0.0718 v 16.84755 0.2713 h -0.0718 l 0.0584,0.0997 -0.0584,0.10128 h 0.0718 v 0.27389 16.84548 h -0.0718 l 0.0718,0.12402 v 0.14935 0.20102 l 5.1e-4,-0.001 v 16.77468 l -0.17208,-0.0997 0.15761,0.27285 -0.0579,0.10025 h 0.0718 v 8.56072 c 1.4e-4,0.055 0.0447,0.0996 0.0997,0.0997 0.0558,10e-4 0.10166,-0.0439 0.1018,-0.0997 v -8.28735 l 4.84157,8.38708 h 9.68365 0.31626 l 0.0568,0.0992 0.0568,-0.0992 h 10.00198 l 4.84156,-8.38708 v 8.28735 a 0.1,0.1 0 0 0 0.0997,0.0997 0.1,0.1 0 0 0 0.10128,-0.0997 v -8.28735 l 4.84208,8.38708 h 9.99991 l 0.0568,0.0992 0.0568,-0.0992 h 0.31574 9.68572 l 4.84208,-8.38708 v 8.28735 c 1.4e-4,0.0548 0.0444,0.0993 0.0992,0.0997 0.0558,10e-4 0.10166,-0.0439 0.1018,-0.0997 v -8.28735 l 4.84156,8.38708 h 9.99991 l 0.0568,0.0992 0.0568,-0.0992 h 0.31626 9.68571 l 4.84157,-8.38708 v 8.28735 c 1.5e-4,0.055 0.0447,0.0996 0.0997,0.0997 0.0556,7.1e-4 0.10115,-0.0441 0.10129,-0.0997 v -8.56072 h 0.0724 l -0.0584,-0.10025 0.15813,-0.27285 -0.17208,0.0992 v -17.12247 l 0.0724,-0.12506 h -0.0724 v -16.84548 -0.27389 h 0.0724 l -0.0584,-0.10128 0.0584,-0.0997 h -0.0724 v -0.2713 -16.84755 h 0.0724 l -0.0724,-0.12506 v -17.12298 l 0.17208,0.0992 -0.15813,-0.27233 0.0584,-0.10077 h -0.0724 v -8.5602 -8.56072 h 0.0724 l -0.0584,-0.10025 0.15813,-0.27285 -0.17208,0.0992 v -17.12247 l 0.0724,-0.12506 h -0.0724 v -16.84548 -0.27389 h 0.0724 l -0.0584,-0.10128 0.0584,-0.0997 h -0.0724 v -0.2713 -16.84755 h 0.0724 l -0.0724,-0.12506 v -17.12298 l 0.17208,0.0992 -0.15813,-0.27234 0.0584,-0.10077 h -0.0724 v -8.5602 -8.56072 h 0.0724 l -0.0584,-0.10025 0.15813,-0.27285 -0.17208,0.0992 v -17.12247 l 0.0724,-0.12506 h -0.0724 v -16.84548 -0.27389 h 0.0724 l -0.0584,-0.10128 0.0584,-0.0997 h -0.0724 v -0.2713 -16.84755 h 0.0724 l -0.0724,-0.12506 v -17.12298 l 0.17208,0.0992 -0.15813,-0.27234 0.0584,-0.10077 h -0.0724 v -8.5602 c -1.4e-4,-0.0556 -0.0457,-0.10051 -0.10129,-0.0997 -0.055,1.4e-4 -0.0996,0.0447 -0.0997,0.0997 v 8.28683 l -4.84157,-8.38656 h -9.68571 -0.31626 l -0.0568,-0.0997 -0.0568,0.0997 h -9.99991 l -4.84156,8.38656 v -8.28683 c -1.4e-4,-0.0558 -0.046,-0.1008 -0.1018,-0.0997 -0.055,1.4e-4 -0.0996,0.0447 -0.0997,0.0997 v 8.28683 l -4.84156,-8.38656 H 368.5223 l -0.0563,-0.0997 -0.0568,0.0997 h -0.31626 -9.68365 l -4.84208,8.38656 v -8.28683 c -1.5e-4,-0.0556 -0.0457,-0.10051 -0.10128,-0.0997 -0.055,1.4e-4 -0.0996,0.0447 -0.0997,0.0997 v 8.28683 l -4.84208,-8.38656 h -9.6852 -0.31626 z m -9.94151,0.30076 h 9.56841 l -14.35158,8.28528 z m 10.31668,0 h 9.56841 l 4.78317,8.28528 z m 19.68355,0 h 9.56841 l -14.35364,8.28528 z m 10.31617,0 h 9.56841 l 4.78317,8.28528 z m 19.68355,0 h 9.56841 l -14.35365,8.28528 z m 10.31669,0 h 9.5684 l 4.78317,8.28528 z m -30.10153,0.17208 4.80643,2.77502 9.5467,5.51181 h -9.56634 l -4.78679,-8.28631 z m -30.00023,5.2e-4 14.35364,8.28631 h -9.56634 z m 59.99995,0 14.35365,8.28631 h -9.56634 z m -60.54669,0.002 -4.78524,8.28528 h -9.56634 z m 29.99972,0 -4.78472,8.28528 h -9.56686 z m 30.00024,0 -4.78524,8.28528 h -9.56634 z m -59.82633,0.0997 v 16.57212 l -4.78317,-8.28735 z m 0.20154,0 4.78317,8.28477 -4.78317,8.28735 z m 29.7987,0 v 16.57212 l -4.78317,-8.28735 z m 0.20102,0 4.78317,8.28477 -4.78317,8.28735 z m 29.7987,0 v 16.57212 l -4.78317,-8.28735 z m 0.20154,0 4.78317,8.28477 -4.78317,8.28735 z m -74.72671,8.38657 h 9.56841 l 0.18345,0.31833 4.59972,7.96695 z m 19.68356,0 h 9.5684 l -14.35158,8.28528 z m 10.31616,0 h 9.56841 l 0.18397,0.31833 4.5992,7.96695 z m 19.68407,0 h 9.56789 l -14.35158,8.28528 z m 10.31617,0 h 9.56841 l 0.18345,0.31833 4.59972,7.96695 z m 19.68355,0 h 9.56841 l -14.35158,8.28528 z m -79.78324,0.17363 14.35158,8.28529 h -9.56841 z m 29.45143,0 -4.78317,8.28529 h -9.56841 z m 0.5488,0 14.35158,8.28529 h -9.56841 z m 29.45092,0 -4.78317,8.28529 h -9.56841 z m 0.5488,0 14.35158,8.28529 h -9.56841 z m 29.45143,0 -4.78317,8.28529 h -9.5684 z m -89.62502,0.0997 4.78317,8.28528 -4.78317,8.28683 z m 29.7987,0 v 16.57211 l -4.78317,-8.28683 z m 0.20102,0 4.78317,8.28528 -4.78317,8.28683 z m 29.79922,0 v 16.57211 l -4.78369,-8.28683 z m 0.20102,0 4.78317,8.28528 -4.78317,8.28683 z m 29.7987,0 v 16.57211 l -4.78317,-8.28683 z m -84.84185,8.38657 h 9.56841 l -14.35158,8.28528 z m 10.31668,0 h 9.56841 l 4.78317,8.28528 z m 19.68355,0 h 9.56841 l -14.35158,8.28528 z m 10.31617,0 h 9.56841 l 4.78317,8.28528 z m 19.68355,0 h 9.56841 l -14.35158,8.28528 z m 10.31669,0 h 9.5684 l 4.78317,8.28528 z m -60.6485,0.17415 -4.78524,8.28476 h -9.56634 z m 0.5488,0 14.35158,8.28476 h -9.56634 -0.002 l -2.5275,-4.37492 z m 29.45092,0 -4.78472,8.28476 h -9.56686 z m 0.5488,0 14.35158,8.28476 h -9.56634 -0.002 l -2.52697,-4.37492 z m 29.45144,0 -4.78524,8.28476 h -9.56634 z m 0.5488,0 14.35158,8.28476 h -9.56634 -0.002 l -2.52749,-4.37492 z m -60.37513,0.0992 v 16.57264 l -4.78317,-8.28735 0.18345,-0.31833 z m 0.20154,0 4.78317,8.28529 -4.78317,8.28735 z m 29.7987,0 v 16.57264 l -4.78317,-8.28735 0.18345,-0.31833 z m 0.20102,0 4.78317,8.28529 -4.78317,8.28735 z m 29.7987,0 v 16.57264 l -4.78317,-8.28735 0.18397,-0.31833 z m 0.20154,0 4.78317,8.28529 -4.78317,8.28735 z m -74.72567,8.38709 h 9.56737 l 4.78317,8.28477 -7.17579,-4.14239 z m 19.68252,0 h 9.56427 l -9.32863,5.38675 -5.02088,2.89802 z m 10.31616,0 h 9.56841 l 4.78317,8.28477 z m 19.68407,0 h 9.56324 l -10.342,5.97225 -4.00648,2.31252 z m 10.31617,0 h 9.56841 l 4.78317,8.28477 z m 19.68355,0 h 9.56738 l -2.93626,1.69499 -11.41636,6.58978 z m -79.78428,0.17312 14.34951,8.2858 h -9.5653 z m 29.45247,5.1e-4 -4.78317,8.28529 h -9.56841 z m 0.54777,0 14.34796,8.28529 h -9.56376 z m 29.45195,0 -4.78317,8.28529 h -9.56841 z m 0.54777,0 14.34796,8.28529 h -9.56376 z m 29.45298,0 -4.78369,8.28529 h -9.5684 l 6.86314,-3.96307 0.14366,-0.0827 z m -89.62554,0.0997 4.78317,8.28683 -0.18345,0.31833 -4.59972,7.96695 z m 29.7987,0 v 16.57211 l -4.78317,-8.28528 z m 0.20102,0 4.78317,8.28683 -0.18345,0.31833 -4.59972,7.96695 z m 29.79922,0 v 16.57211 l -4.78369,-8.28528 z m 0.20102,0 4.78317,8.28683 -0.18345,0.31833 -4.59972,7.96695 z m 29.7987,0 v 16.57211 l -4.78317,-8.28528 z m -84.84185,8.38657 h 0.002 9.56635 l -14.35158,8.28528 z m 10.31668,0 h 9.56634 l 4.78524,8.28528 z m 19.68355,0 h 0.002 9.56634 l -14.35158,8.28528 z m 10.31617,0 h 9.56634 l 4.78524,8.28528 z m 19.68355,0 h 0.002 9.56634 l -14.35158,8.28528 z m 10.31669,0 h 9.56634 l 4.00182,6.92774 0.78341,1.35754 z m -60.6485,0.17363 -4.78317,8.28528 h -9.56841 z m 60.54876,0 14.35158,8.28528 h -9.56841 z m -59.99996,5.2e-4 14.35158,8.28476 h -9.5684 z m 29.45092,0 -4.78317,8.28476 h -9.56841 z m 0.5488,0 14.35158,8.28476 h -9.56789 z m 29.45144,0 -4.78317,8.28476 h -9.56841 z m -59.82633,0.0992 v 16.57212 l -4.78317,-8.28683 z m 0.20154,0 4.78317,8.28529 -4.78317,8.28735 z m 29.7987,0 v 16.57264 l -4.78317,-8.28735 z m 0.20102,0 4.78317,8.28529 -4.78317,8.28735 z m 29.7987,0 v 16.57264 l -4.78317,-8.28735 z m 0.20154,0 4.78317,8.28529 -4.78317,8.28683 z m -74.72671,8.38657 h 9.56841 l 4.78317,8.28529 z m 79.68351,0 h 9.56841 l -14.35158,8.28529 z m -59.99995,5.2e-4 h 9.5684 l -14.35158,8.28477 z m 10.31616,0 h 9.56841 l 4.78317,8.28477 z m 19.68407,0 h 9.56789 l -14.35158,8.28477 z m 10.31617,0 h 9.56841 l 4.78317,8.28477 z m -60.09969,0.17363 14.35158,8.28528 h -9.56841 z m 29.45143,0 -4.78317,8.28528 h -9.56841 z m 0.5488,0 14.35158,8.28528 h -9.56841 z m 29.45092,0 -4.78317,8.28528 h -9.56841 z m 0.5488,0 14.35158,8.28528 h -9.56841 z m 29.45143,0 -4.78317,8.28528 h -9.5684 z m -89.62502,0.0997 4.78317,8.28683 -4.78317,8.28528 z m 29.7987,0 v 16.57211 l -4.78317,-8.28528 z m 0.20102,0 4.78317,8.28683 -4.78317,8.28528 z m 29.79922,0 v 16.57211 l -4.78369,-8.28528 z m 0.20102,0 4.78317,8.28683 -4.78317,8.28528 z m 29.7987,0 v 16.57211 l -4.78317,-8.28528 z m -84.83979,8.38657 h 9.56635 l -14.35365,8.28528 z m 10.31462,0 h 9.56634 l 4.78627,8.2858 -2.98328,-1.72186 z m 19.68562,0 h 9.56634 l -14.35364,8.28683 z m 10.3141,0 h 9.56634 l 4.78679,8.28631 -1.32137,-0.76274 -0.48937,-0.28267 z m 19.68562,0 h 9.56634 l -14.35365,8.28683 z m 10.31462,0 h 9.56634 l 4.7873,8.28528 z m -60.10176,0.17156 14.35364,8.28735 h -0.002 -9.56685 l -4.78318,-8.28425 14.35003,8.28425 z m 30.00023,0 14.35313,8.28735 h -0.001 -9.56686 l -4.7842,-8.28528 14.35106,8.28528 z m 30.00024,0.001 5.11545,2.95279 9.23768,5.33352 h -9.56841 z m -60.54721,0.001 -4.78317,8.28528 h -9.56841 z m 29.99972,0 -4.78317,8.28528 h -9.56841 z m 30.00024,0 -4.78317,8.28528 h -9.56841 z m -59.82633,0.0997 v 16.57212 l -4.78317,-8.28477 z m 0.20154,0 4.78317,8.28735 -0.18397,0.31833 -4.5992,7.96644 z m 29.7987,0 v 16.57212 l -4.78317,-8.28477 z m 0.20102,0 4.78317,8.28735 -0.18345,0.31833 -4.59972,7.96644 z m 29.7987,0 v 16.57212 l -4.78317,-8.28477 z m 0.20154,0 4.78317,8.28735 -0.18397,0.31833 -4.5992,7.96644 z m -74.72671,8.38657 h 9.56634 l 4.78524,8.28529 z m 19.68356,0 h 0.002 9.56634 l -14.35158,8.28529 z m 10.31616,0 h 9.56686 l 4.78472,8.28529 z m 19.68407,0 h 0.002 9.56634 l -14.35106,8.28529 z m 10.31617,0 h 9.56634 l 4.78524,8.28529 z m 19.68355,0 h 0.002 9.56634 l -14.35158,8.28529 z m -79.78324,0.17415 14.35364,8.28684 h -9.57047 z m 29.45143,0 -4.78317,8.28684 h -9.57048 z m 0.5488,0 14.35313,8.28684 h -9.56996 z m 29.45092,0 -4.78317,8.28684 h -9.57048 z m 0.5488,0 14.35365,8.28684 h -9.57048 z m 29.45143,0 -4.78317,8.28684 h -9.57047 z m -89.62502,0.0997 4.78524,8.28683 -4.78524,8.28735 z m 29.7987,0 v 16.57418 l -4.78524,-8.28735 z m 0.20102,0 4.78524,8.28683 -4.78524,8.28735 z m 29.79922,0 v 16.57418 l -4.78524,-8.28735 z m 0.20102,0 4.78524,8.28683 -4.78524,8.28735 z m 29.7987,0 v 16.57418 l -4.78524,-8.28735 z m -84.84185,8.38657 h 9.56841 l -14.35158,8.28528 z m 10.31668,0 h 9.56841 l 4.78317,8.28528 z m 19.68355,0 h 9.56841 l -14.35158,8.28528 z m 10.31617,0 h 9.56841 l 4.78317,8.28528 z m 19.68355,0 h 9.56841 l -14.35158,8.28528 z m 10.31669,0 h 9.5684 l 4.78317,8.28528 z m -60.6485,0.17363 -4.78524,8.28735 h -9.5684 z m 0.5488,0 14.35365,8.28735 h -9.56841 -0.002 l -2.51768,-4.36356 z m 29.45092,0 -4.78472,8.28735 h -9.56841 z m 0.5488,0 14.35365,8.28735 h -9.56841 -0.002 l -2.51715,-4.36356 z m 29.45144,0 -4.78524,8.28735 h -9.56841 z m 0.5488,0 14.35365,8.28735 h -9.56841 -0.002 l -2.51768,-4.36356 z m -60.37513,0.0997 v 16.57212 l -4.78317,-8.28528 4.09174,-7.08743 z m 0.20154,0 0.69092,1.19941 4.09225,7.08743 -4.78317,8.28528 z m 29.7987,0 v 16.57212 l -4.78317,-8.28528 4.09174,-7.08743 z m 0.20102,0 0.69143,1.19941 4.09174,7.08743 -4.78317,8.28528 z m 29.7987,0 v 16.57212 l -4.78317,-8.28528 4.09174,-7.08743 z m 0.20154,0 0.69143,1.19941 4.09174,7.08743 -4.78317,8.28528 z m -74.72671,8.38657 h 9.56634 l 4.78731,8.28735 z m 19.68562,0 h 9.56634 l -11.65096,6.72672 -2.70268,1.56063 v -5.1e-4 z m 10.3141,0 h 9.56686 l 4.78679,8.28735 z m 19.68562,0 h 9.56634 l -12.24111,7.06779 -2.11202,1.21905 z m 10.31462,0 h 9.56634 l 4.7873,8.28735 z m 19.68562,0 h 9.56634 l -14.35365,8.28684 z m -79.78531,0.17415 14.35364,8.28683 h -9.57047 z m 29.45143,0 -4.78317,8.28683 h -9.57048 z m 0.54674,0 14.35519,8.28683 h -0.002 -9.56841 z m 29.45298,0 -4.78317,8.28683 h -9.57048 z m 0.54673,0 14.35572,8.28683 h -9.57048 z m 29.4535,0 -4.78317,8.28683 h -9.57047 z m -89.62502,0.0992 4.78421,8.28735 -4.78421,8.28683 v -8.28683 z m 29.7987,0 v 8.28735 8.28683 l -4.7842,-8.28631 z m 0.20102,0 4.78472,8.28735 -4.78472,8.28683 v -8.28683 z m 29.79922,0 v 8.28683 c 0,1.5e-4 0,3.8e-4 0,5.2e-4 0,1.4e-4 -5.2e-4,-1.4e-4 -5.2e-4,0 v 8.28683 l -4.7842,-8.28683 z m 0.20102,0 4.7842,8.28735 -4.7842,8.28683 v -8.28683 z m 29.7987,0 v 8.28735 8.28683 l -4.78421,-8.28683 z m -84.84185,8.38864 h 9.56841 l -14.35158,8.28528 z m 10.31668,0 h 9.56841 l 4.78317,8.28528 z m 19.68355,0 h 9.56841 l -14.35364,8.28528 z m 10.31617,0 h 9.56841 l 4.78317,8.28528 z m 19.68355,0 h 9.56841 l -14.35365,8.28528 z m 10.31669,0 h 9.5684 l 4.78317,8.28528 z m -30.10153,0.17208 4.80643,2.77502 9.5467,5.51181 h -9.56634 l -4.78679,-8.28631 z m -30.00023,5.2e-4 14.35364,8.28631 h -9.56634 z m 59.99995,0 14.35365,8.28631 h -9.56634 z m -60.54669,0.002 -4.78524,8.28528 h -9.56634 z m 29.99972,0 -4.78472,8.28528 h -9.56686 z m 30.00024,0 -4.78524,8.28528 h -9.56634 z m -59.82633,0.0997 v 16.57212 l -4.78317,-8.28735 z m 0.20154,0 4.78317,8.28477 -4.78317,8.28735 z m 29.7987,0 v 16.57212 l -4.78317,-8.28735 z m 0.20102,0 4.78317,8.28477 -4.78317,8.28735 z m 29.7987,0 v 16.57212 l -4.78317,-8.28735 z m 0.20154,0 4.78317,8.28477 -4.78317,8.28735 z m -74.72671,8.38657 h 9.56841 l 0.18345,0.31833 4.59972,7.96695 z m 19.68356,0 h 9.5684 l -14.35158,8.28528 z m 10.31616,0 h 9.56841 l 0.18397,0.31833 4.5992,7.96695 z m 19.68407,0 h 9.56789 l -14.35158,8.28528 z m 10.31617,0 h 9.56841 l 0.18345,0.31833 4.59972,7.96695 z m 19.68355,0 h 9.56841 l -14.35158,8.28528 z m -79.78324,0.17363 14.35158,8.28528 h -9.56841 z m 29.45143,0 -4.78317,8.28528 h -9.56841 z m 0.5488,0 14.35158,8.28528 h -9.56841 z m 29.45092,0 -4.78317,8.28528 h -9.56841 z m 0.5488,0 14.35158,8.28528 h -9.56841 z m 29.45143,0 -4.78317,8.28528 h -9.5684 z m -89.62502,0.0997 4.78317,8.28528 -4.78317,8.28683 z m 29.7987,0 v 16.57211 l -4.78317,-8.28683 z m 0.20102,0 4.78317,8.28528 -4.78317,8.28683 z m 29.79922,0 v 16.57211 l -4.78369,-8.28683 z m 0.20102,0 4.78317,8.28528 -4.78317,8.28683 z m 29.7987,0 v 16.57211 l -4.78317,-8.28683 z m -84.84185,8.38657 h 9.56841 l -14.35158,8.28528 z m 10.31668,0 h 9.56841 l 4.78317,8.28528 z m 19.68355,0 h 9.56841 l -14.35158,8.28528 z m 10.31617,0 h 9.56841 l 4.78317,8.28528 z m 19.68355,0 h 9.56841 l -14.35158,8.28528 z m 10.31669,0 h 9.5684 l 4.78317,8.28528 z m -60.6485,0.17415 -4.78524,8.28476 h -9.56634 z m 0.5488,0 14.35158,8.28476 h -9.56634 -0.002 l -2.5275,-4.37493 z m 29.45092,0 -4.78472,8.28476 h -9.56686 z m 0.5488,0 14.35158,8.28476 h -9.56634 -0.002 l -2.52697,-4.37493 z m 29.45144,0 -4.78524,8.28476 h -9.56634 z m 0.5488,0 14.35158,8.28476 h -9.56634 -0.002 l -2.52749,-4.37493 z m -60.37513,0.0992 v 16.57264 l -4.78317,-8.28735 0.18345,-0.31833 z m 0.20154,0 4.78317,8.28529 -4.78317,8.28735 z m 29.7987,0 v 16.57264 l -4.78317,-8.28735 0.18345,-0.31833 z m 0.20102,0 4.78317,8.28529 -4.78317,8.28735 z m 29.7987,0 v 16.57264 l -4.78317,-8.28735 0.18397,-0.31833 z m 0.20154,0 4.78317,8.28529 -4.78317,8.28735 z m -74.72567,8.38709 h 9.56737 l 4.78317,8.28476 -7.17579,-4.14238 z m 19.68252,0 h 9.56427 l -9.32863,5.38675 -5.02088,2.89801 z m 10.31616,0 h 9.56841 l 4.78317,8.28476 z m 19.68407,0 h 9.56324 l -10.342,5.97224 -4.00648,2.31252 z m 10.31617,0 h 9.56841 l 4.78317,8.28476 z m 19.68355,0 h 9.56738 l -2.93626,1.69499 -11.41636,6.58977 z m -79.78428,0.17312 14.34951,8.28579 h -9.5653 z m 29.45247,5.1e-4 -4.78317,8.28528 h -9.56841 z m 0.54777,0 14.34796,8.28528 h -9.56376 z m 29.45195,0 -4.78317,8.28528 h -9.56841 z m 0.54777,0 14.34796,8.28528 h -9.56376 z m 29.45298,0 -4.78369,8.28528 h -9.5684 l 6.86314,-3.96306 0.14366,-0.0827 z m -89.62554,0.0997 4.78317,8.28683 -0.18345,0.31833 -4.59972,7.96695 z m 29.7987,0 v 16.57211 l -4.78317,-8.28528 z m 0.20102,0 4.78317,8.28683 -0.18345,0.31833 -4.59972,7.96695 z m 29.79922,0 v 16.57211 l -4.78369,-8.28528 z m 0.20102,0 4.78317,8.28683 -0.18345,0.31833 -4.59972,7.96695 z m 29.7987,0 v 16.57211 l -4.78317,-8.28528 z m -84.84185,8.38657 h 0.002 9.56635 l -14.35158,8.28528 z m 10.31668,0 h 9.56634 l 4.78524,8.28528 z m 19.68355,0 h 0.002 9.56634 l -14.35158,8.28528 z m 10.31617,0 h 9.56634 l 4.78524,8.28528 z m 19.68355,0 h 0.002 9.56634 l -14.35158,8.28528 z m 10.31669,0 h 9.56634 l 4.00182,6.92774 0.78341,1.35754 z m -60.6485,0.17363 -4.78317,8.28528 h -9.56841 z m 60.54876,0 14.35158,8.28528 h -9.56841 z m -59.99996,5.2e-4 14.35158,8.28476 h -9.5684 z m 29.45092,0 -4.78317,8.28476 h -9.56841 z m 0.5488,0 14.35158,8.28476 h -9.56789 z m 29.45144,0 -4.78317,8.28476 h -9.56841 z m -59.82633,0.0992 v 16.57212 l -4.78317,-8.28683 z m 0.20154,0 4.78317,8.28529 -4.78317,8.28735 z m 29.7987,0 v 16.57264 l -4.78317,-8.28735 z m 0.20102,0 4.78317,8.28529 -4.78317,8.28735 z m 29.7987,0 v 16.57264 l -4.78317,-8.28735 z m 0.20154,0 4.78317,8.28529 -4.78317,8.28683 z m -74.72671,8.38657 h 9.56841 l 4.78317,8.28528 z m 79.68351,0 h 9.56841 l -14.35158,8.28528 z m -59.99995,5.2e-4 h 9.5684 l -14.35158,8.28476 z m 10.31616,0 h 9.56841 l 4.78317,8.28476 z m 19.68407,0 h 9.56789 l -14.35158,8.28476 z m 10.31617,0 h 9.56841 l 4.78317,8.28476 z m -60.09969,0.17363 14.35158,8.28528 h -9.56841 z m 29.45143,0 -4.78317,8.28528 h -9.56841 z m 0.5488,0 14.35158,8.28528 h -9.56841 z m 29.45092,0 -4.78317,8.28528 h -9.56841 z m 0.5488,0 14.35158,8.28528 h -9.56841 z m 29.45143,0 -4.78317,8.28528 h -9.5684 z m -89.62502,0.0997 4.78317,8.28683 -4.78317,8.28528 z m 29.7987,0 v 16.57211 l -4.78317,-8.28528 z m 0.20102,0 4.78317,8.28683 -4.78317,8.28528 z m 29.79922,0 v 16.57211 l -4.78369,-8.28528 z m 0.20102,0 4.78317,8.28683 -4.78317,8.28528 z m 29.7987,0 v 16.57211 l -4.78317,-8.28528 z m -84.83979,8.38657 h 9.56635 l -14.35365,8.28528 z m 10.31462,0 h 9.56634 l 4.78627,8.28579 -2.98328,-1.72185 z m 19.68562,0 h 9.56634 l -14.35364,8.28683 z m 10.3141,0 h 9.56634 l 4.78679,8.28631 -1.32137,-0.76274 -0.48937,-0.28267 z m 19.68562,0 h 9.56634 l -14.35365,8.28683 z m 10.31462,0 h 9.56634 l 4.7873,8.28528 z m -60.10176,0.17156 14.35364,8.28735 h -0.002 -9.56685 l -4.78318,-8.28425 14.35003,8.28425 z m 30.00023,0 14.35313,8.28735 h -0.001 -9.56686 l -4.7842,-8.28528 14.35106,8.28528 z m 30.00024,0.001 5.11545,2.9528 9.23768,5.33352 h -9.56841 z m -60.54721,0.001 -4.78317,8.28528 h -9.56841 z m 29.99972,0 -4.78317,8.28528 h -9.56841 z m 30.00024,0 -4.78317,8.28528 h -9.56841 z m -59.82633,0.0997 v 16.57212 l -4.78317,-8.28477 z m 0.20154,0 4.78317,8.28735 -0.18397,0.31833 -4.5992,7.96644 z m 29.7987,0 v 16.57212 l -4.78317,-8.28477 z m 0.20102,0 4.78317,8.28735 -0.18345,0.31833 -4.59972,7.96644 z m 29.7987,0 v 16.57212 l -4.78317,-8.28477 z m 0.20154,0 4.78317,8.28735 -0.18397,0.31833 -4.5992,7.96644 z m -74.72671,8.38657 h 9.56634 l 4.78524,8.28528 z m 19.68356,0 h 0.002 9.56634 l -14.35158,8.28528 z m 10.31616,0 h 9.56686 l 4.78472,8.28528 z m 19.68407,0 h 0.002 9.56634 l -14.35106,8.28528 z m 10.31617,0 h 9.56634 l 4.78524,8.28528 z m 19.68355,0 h 0.002 9.56634 l -14.35158,8.28528 z m -79.78324,0.17415 14.35364,8.28683 h -9.57047 z m 29.45143,0 -4.78317,8.28683 h -9.57048 z m 0.5488,0 14.35313,8.28683 h -9.56996 z m 29.45092,0 -4.78317,8.28683 h -9.57048 z m 0.5488,0 14.35365,8.28683 h -9.57048 z m 29.45143,0 -4.78317,8.28683 h -9.57047 z m -89.62502,0.0997 4.78524,8.28683 -4.78524,8.28735 z m 29.7987,0 v 16.57418 l -4.78524,-8.28735 z m 0.20102,0 4.78524,8.28683 -4.78524,8.28735 z m 29.79922,0 v 16.57418 l -4.78524,-8.28735 z m 0.20102,0 4.78524,8.28683 -4.78524,8.28735 z m 29.7987,0 v 16.57418 l -4.78524,-8.28735 z m -84.84185,8.38657 h 9.56841 l -14.35158,8.28528 z m 10.31668,0 h 9.56841 l 4.78317,8.28528 z m 19.68355,0 h 9.56841 l -14.35158,8.28528 z m 10.31617,0 h 9.56841 l 4.78317,8.28528 z m 19.68355,0 h 9.56841 l -14.35158,8.28528 z m 10.31669,0 h 9.5684 l 4.78317,8.28528 z m -60.6485,0.17363 -4.78524,8.28735 h -9.5684 z m 0.5488,0 14.35365,8.28735 h -9.56841 -0.002 l -2.51768,-4.36356 z m 29.45092,0 -4.78472,8.28735 h -9.56841 z m 0.5488,0 14.35365,8.28735 h -9.56841 -0.002 l -2.51715,-4.36356 z m 29.45144,0 -4.78524,8.28735 h -9.56841 z m 0.5488,0 14.35365,8.28735 h -9.56841 -0.002 l -2.51768,-4.36356 z m -60.37513,0.0997 v 16.57212 l -4.78317,-8.28528 4.09174,-7.08743 z m 0.20154,0 0.69092,1.19941 4.09225,7.08743 -4.78317,8.28528 z m 29.7987,0 v 16.57212 l -4.78317,-8.28528 4.09174,-7.08743 z m 0.20102,0 0.69143,1.19941 4.09174,7.08743 -4.78317,8.28528 z m 29.7987,0 v 16.57212 l -4.78317,-8.28528 4.09174,-7.08743 z m 0.20154,0 0.69143,1.19941 4.09174,7.08743 -4.78317,8.28528 z m -74.72671,8.38657 h 9.56634 l 4.78731,8.28735 z m 19.68562,0 h 9.56634 l -11.65096,6.72672 -2.70268,1.56063 v -5.2e-4 z m 10.3141,0 h 9.56686 l 4.78679,8.28735 z m 19.68562,0 h 9.56634 l -12.24111,7.06779 -2.11202,1.21904 z m 10.31462,0 h 9.56634 l 4.7873,8.28735 z m 19.68562,0 h 9.56634 l -14.35365,8.28683 z m -79.78531,0.17415 14.35364,8.28683 h -9.57047 z m 29.45143,0 -4.78317,8.28683 h -9.57048 z m 0.54674,0 14.35519,8.28683 h -0.002 -9.56841 z m 29.45298,0 -4.78317,8.28683 h -9.57048 z m 0.54673,0 14.35572,8.28683 h -9.57048 z m 29.4535,0 -4.78317,8.28683 h -9.57047 z m -89.62502,0.0992 4.78421,8.28735 -4.78421,8.28683 v -8.28683 z m 29.7987,0 v 8.28735 8.28683 l -4.7842,-8.28631 z m 0.20102,0 4.78472,8.28735 -4.78472,8.28683 v -8.28683 z m 29.79922,0 v 8.28683 c 0,1.5e-4 0,3.8e-4 0,5.2e-4 0,1.4e-4 -5.2e-4,-1.4e-4 -5.2e-4,0 v 8.28683 l -4.7842,-8.28683 z m 0.20102,0 4.7842,8.28735 -4.7842,8.28683 v -8.28683 z m 29.7987,0 v 8.28735 8.28683 l -4.78421,-8.28683 z m -84.84185,8.38864 h 9.56841 l -14.35158,8.28528 z m 10.31668,0 h 9.56841 l 4.78317,8.28528 z m 19.68355,0 h 9.56841 l -14.35364,8.28528 z m 10.31617,0 h 9.56841 l 4.78317,8.28528 z m 19.68355,0 h 9.56841 l -14.35365,8.28528 z m 10.31669,0 h 9.5684 l 4.78317,8.28528 z m -30.10153,0.17208 4.80643,2.77502 9.5467,5.51181 h -9.56634 l -4.78679,-8.28632 z m -30.00023,5.1e-4 14.35364,8.28632 h -9.56634 z m 59.99995,0 14.35365,8.28632 h -9.56634 z m -60.54669,0.002 -4.78524,8.28528 h -9.56634 z m 29.99972,0 -4.78472,8.28528 h -9.56686 z m 30.00024,0 -4.78524,8.28528 h -9.56634 z m -59.82633,0.0997 v 16.57212 l -4.78317,-8.28735 z m 0.20154,0 4.78317,8.28477 -4.78317,8.28735 z m 29.7987,0 v 16.57212 l -4.78317,-8.28735 z m 0.20102,0 4.78317,8.28477 -4.78317,8.28735 z m 29.7987,0 v 16.57212 l -4.78317,-8.28735 z m 0.20154,0 4.78317,8.28477 -4.78317,8.28735 z m -74.72671,8.38657 h 9.56841 l 0.18345,0.31833 4.59972,7.96695 z m 19.68356,0 h 9.5684 l -14.35158,8.28528 z m 10.31616,0 h 9.56841 l 0.18397,0.31833 4.5992,7.96695 z m 19.68407,0 h 9.56789 l -14.35158,8.28528 z m 10.31617,0 h 9.56841 l 0.18345,0.31833 4.59972,7.96695 z m 19.68355,0 h 9.56841 l -14.35158,8.28528 z m -79.78324,0.17363 14.35158,8.28528 h -9.56841 z m 29.45143,0 -4.78317,8.28528 h -9.56841 z m 0.5488,0 14.35158,8.28528 h -9.56841 z m 29.45092,0 -4.78317,8.28528 h -9.56841 z m 0.5488,0 14.35158,8.28528 h -9.56841 z m 29.45143,0 -4.78317,8.28528 h -9.5684 z m -89.62502,0.0997 4.78317,8.28528 -4.78317,8.28683 z m 29.7987,0 v 16.57211 l -4.78317,-8.28683 z m 0.20102,0 4.78317,8.28528 -4.78317,8.28683 z m 29.79922,0 v 16.57211 l -4.78369,-8.28683 z m 0.20102,0 4.78317,8.28528 -4.78317,8.28683 z m 29.7987,0 v 16.57211 l -4.78317,-8.28683 z m -84.84185,8.38657 h 9.56841 l -14.35158,8.28528 z m 10.31668,0 h 9.56841 l 4.78317,8.28528 z m 19.68355,0 h 9.56841 l -14.35158,8.28528 z m 10.31617,0 h 9.56841 l 4.78317,8.28528 z m 19.68355,0 h 9.56841 l -14.35158,8.28528 z m 10.31669,0 h 9.5684 l 4.78317,8.28528 z m -60.6485,0.17414 -4.78524,8.28477 h -9.56634 z m 0.5488,0 14.35158,8.28477 h -9.56634 -0.002 l -2.5275,-4.37493 z m 29.45092,0 -4.78472,8.28477 h -9.56686 z m 0.5488,0 14.35158,8.28477 h -9.56634 -0.002 l -2.52697,-4.37493 z m 29.45144,0 -4.78524,8.28477 h -9.56634 z m 0.5488,0 14.35158,8.28477 h -9.56634 -0.002 l -2.52749,-4.37493 z m -60.37513,0.0992 v 16.57264 l -4.78317,-8.28735 0.18345,-0.31833 z m 0.20154,0 4.78317,8.28529 -4.78317,8.28735 z m 29.7987,0 v 16.57264 l -4.78317,-8.28735 0.18345,-0.31833 z m 0.20102,0 4.78317,8.28529 -4.78317,8.28735 z m 29.7987,0 v 16.57264 l -4.78317,-8.28735 0.18397,-0.31833 z m 0.20154,0 4.78317,8.28529 -4.78317,8.28735 z m -74.72567,8.38709 h 9.56737 l 4.78317,8.28476 -7.17579,-4.14238 z m 19.68252,0 h 9.56427 l -9.32863,5.38675 -5.02088,2.89801 z m 10.31616,0 h 9.56841 l 4.78317,8.28476 z m 19.68407,0 h 9.56324 l -10.342,5.97224 -4.00648,2.31252 z m 10.31617,0 h 9.56841 l 4.78317,8.28476 z m 19.68355,0 h 9.56738 l -2.93626,1.69499 -11.41636,6.58977 z m -79.78428,0.17311 14.34951,8.2858 h -9.5653 z m 29.45247,5.2e-4 -4.78317,8.28528 h -9.56841 z m 0.54777,0 14.34796,8.28528 h -9.56376 z m 29.45195,0 -4.78317,8.28528 h -9.56841 z m 0.54777,0 14.34796,8.28528 h -9.56376 z m 29.45298,0 -4.78369,8.28528 h -9.5684 l 6.86314,-3.96306 0.14366,-0.0827 z m -89.62554,0.0997 4.78317,8.28683 -0.18345,0.31833 -4.59972,7.96695 z m 29.7987,0 v 16.57211 l -4.78317,-8.28528 z m 0.20102,0 4.78317,8.28683 -0.18345,0.31833 -4.59972,7.96695 z m 29.79922,0 v 16.57211 l -4.78369,-8.28528 z m 0.20102,0 4.78317,8.28683 -0.18345,0.31833 -4.59972,7.96695 z m 29.7987,0 v 16.57211 l -4.78317,-8.28528 z m -84.84185,8.38657 h 0.002 9.56635 l -14.35158,8.28528 z m 10.31668,0 h 9.56634 l 4.78524,8.28528 z m 19.68355,0 h 0.002 9.56634 l -14.35158,8.28528 z m 10.31617,0 h 9.56634 l 4.78524,8.28528 z m 19.68355,0 h 0.002 9.56634 l -14.35158,8.28528 z m 10.31669,0 h 9.56634 l 4.00182,6.92774 0.78341,1.35754 z m -60.6485,0.17363 -4.78317,8.28528 h -9.56841 z m 60.54876,0 14.35158,8.28528 h -9.56841 z m -59.99996,5.1e-4 14.35158,8.28477 h -9.5684 z m 29.45092,0 -4.78317,8.28477 h -9.56841 z m 0.5488,0 14.35158,8.28477 h -9.56789 z m 29.45144,0 -4.78317,8.28477 h -9.56841 z m -59.82633,0.0992 v 16.57212 l -4.78317,-8.28683 z m 0.20154,0 4.78317,8.28529 -4.78317,8.28735 z m 29.7987,0 v 16.57264 l -4.78317,-8.28735 z m 0.20102,0 4.78317,8.28529 -4.78317,8.28735 z m 29.7987,0 v 16.57264 l -4.78317,-8.28735 z m 0.20154,0 4.78317,8.28529 -4.78317,8.28683 z m -74.72671,8.38657 h 9.56841 l 4.78317,8.28528 z m 79.68351,0 h 9.56841 l -14.35158,8.28528 z m -59.99995,5.2e-4 h 9.5684 l -14.35158,8.28476 z m 10.31616,0 h 9.56841 l 4.78317,8.28476 z m 19.68407,0 h 9.56789 l -14.35158,8.28476 z m 10.31617,0 h 9.56841 l 4.78317,8.28476 z m -60.09969,0.17363 14.35158,8.28528 h -9.56841 z m 29.45143,0 -4.78317,8.28528 h -9.56841 z m 0.5488,0 14.35158,8.28528 h -9.56841 z m 29.45092,0 -4.78317,8.28528 h -9.56841 z m 0.5488,0 14.35158,8.28528 h -9.56841 z m 29.45143,0 -4.78317,8.28528 h -9.5684 z m -89.62502,0.0997 4.78317,8.28683 -4.78317,8.28528 z m 29.7987,0 v 16.57211 l -4.78317,-8.28528 z m 0.20102,0 4.78317,8.28683 -4.78317,8.28528 z m 29.79922,0 v 16.57211 l -4.78369,-8.28528 z m 0.20102,0 4.78317,8.28683 -4.78317,8.28528 z m 29.7987,0 v 16.57211 l -4.78317,-8.28528 z m -84.83979,8.38656 h 9.56635 l -14.35365,8.28529 z m 10.31462,0 h 9.56634 l 4.78627,8.2858 -2.98328,-1.72185 z m 19.68562,0 h 9.56634 l -14.35364,8.28684 z m 10.3141,0 h 9.56634 l 4.78679,8.28632 -1.32137,-0.76274 -0.48937,-0.28267 z m 19.68562,0 h 9.56634 l -14.35365,8.28684 z m 10.31462,0 h 9.56634 l 4.7873,8.28529 z m -60.10176,0.17157 14.35364,8.28735 h -0.002 -9.56685 l -4.78318,-8.28425 14.35003,8.28425 z m 30.00023,0 14.35313,8.28735 h -0.001 -9.56686 l -4.7842,-8.28528 14.35106,8.28528 z m 30.00024,0.001 5.11545,2.9528 9.23768,5.33352 h -9.56841 z m -60.54721,0.001 -4.78317,8.28528 h -9.56841 z m 29.99972,0 -4.78317,8.28528 h -9.56841 z m 30.00024,0 -4.78317,8.28528 h -9.56841 z m -59.82633,0.0997 v 16.57212 l -4.78317,-8.28477 z m 0.20154,0 4.78317,8.28735 -0.18397,0.31833 -4.5992,7.96644 z m 29.7987,0 v 16.57212 l -4.78317,-8.28477 z m 0.20102,0 4.78317,8.28735 -0.18345,0.31833 -4.59972,7.96644 z m 29.7987,0 v 16.57212 l -4.78317,-8.28477 z m 0.20154,0 4.78317,8.28735 -0.18397,0.31833 -4.5992,7.96644 z m -74.72671,8.38657 h 9.56634 l 4.78524,8.28528 z m 19.68356,0 h 0.002 9.56634 l -14.35158,8.28528 z m 10.31616,0 h 9.56686 l 4.78472,8.28528 z m 19.68407,0 h 0.002 9.56634 l -14.35106,8.28528 z m 10.31617,0 h 9.56634 l 4.78524,8.28528 z m 19.68355,0 h 0.002 9.56634 l -14.35158,8.28528 z m -79.78324,0.17415 14.35364,8.28683 h -9.57047 z m 29.45143,0 -4.78317,8.28683 h -9.57048 z m 0.5488,0 14.35313,8.28683 h -9.56996 z m 29.45092,0 -4.78317,8.28683 h -9.57048 z m 0.5488,0 14.35365,8.28683 h -9.57048 z m 29.45143,0 -4.78317,8.28683 h -9.57047 z m -89.62502,0.0997 4.78524,8.28683 -4.78524,8.28735 z m 29.7987,0 v 16.57418 l -4.78524,-8.28735 z m 0.20102,0 4.78524,8.28683 -4.78524,8.28735 z m 29.79922,0 v 16.57418 l -4.78524,-8.28735 z m 0.20102,0 4.78524,8.28683 -4.78524,8.28735 z m 29.7987,0 v 16.57418 l -4.78524,-8.28735 z m -84.84185,8.38656 h 9.56841 l -14.35158,8.28529 z m 10.31668,0 h 9.56841 l 4.78317,8.28529 z m 19.68355,0 h 9.56841 l -14.35158,8.28529 z m 10.31617,0 h 9.56841 l 4.78317,8.28529 z m 19.68355,0 h 9.56841 l -14.35158,8.28529 z m 10.31669,0 h 9.5684 l 4.78317,8.28529 z m -60.6485,0.17364 -4.78524,8.28735 h -9.5684 z m 0.5488,0 14.35365,8.28735 h -9.56841 -0.002 l -2.51768,-4.36356 z m 29.45092,0 -4.78472,8.28735 h -9.56841 z m 0.5488,0 14.35365,8.28735 h -9.56841 -0.002 l -2.51715,-4.36356 z m 29.45144,0 -4.78524,8.28735 h -9.56841 z m 0.5488,0 14.35365,8.28735 h -9.56841 -0.002 l -2.51768,-4.36356 z m -60.37513,0.0997 v 16.57212 l -4.78317,-8.28528 4.09174,-7.08743 z m 0.20154,0 0.69092,1.19941 4.09225,7.08743 -4.78317,8.28528 z m 29.7987,0 v 16.57212 l -4.78317,-8.28528 4.09174,-7.08743 z m 0.20102,0 0.69143,1.19941 4.09174,7.08743 -4.78317,8.28528 z m 29.7987,0 v 16.57212 l -4.78317,-8.28528 4.09174,-7.08743 z m 0.20154,0 0.69143,1.19941 4.09174,7.08743 -4.78317,8.28528 z m -74.72671,8.38657 h 9.56634 l 4.78731,8.28735 z m 19.68562,0 h 9.56634 l -11.65096,6.72672 -2.70268,1.56063 v -5.2e-4 z m 10.3141,0 h 9.56686 l 4.78679,8.28735 z m 19.68562,0 h 9.56634 l -12.24111,7.06779 -2.11202,1.21904 z m 10.31462,0 h 9.56634 l 4.7873,8.28735 z m 19.68562,0 h 9.56634 l -14.35365,8.28683 z m -79.78531,0.17415 14.35364,8.28683 h -9.57047 z m 29.45143,0 -4.78317,8.28683 h -9.57048 z m 0.54674,0 14.35519,8.28683 h -9.56996 z m 29.45298,0 -4.78317,8.28683 h -9.57048 z m 0.54673,0 14.35572,8.28683 h -9.57048 z m 29.4535,0 -4.78317,8.28683 h -9.57047 z"
       style="baseline-shift:baseline;display:inline;overflow:visible;fill:none;enable-background:accumulate;stop-color:#000000;stop-opacity:1;stroke:url(#linearGradient15);stroke-width:0.2;stroke-dasharray:none;stroke-opacity:1"
       id="path1" />
  </g>
</svg>
